# xmcd CD database file
#
# Track frame offsets:
#	150
#	7232
#	15440
#	20897
#	30640
#	42005
#	57705
#	80320
#	92200
#	113777
#	139317
#	153397
#	168247
#	187782
#	227382
#	239035
#	256027
#	271455
#	285225
#	299425
#
# Disc length: 4291 seconds
#
# Revision: 24
# Processed by: cddbd v1.5.2PL0 Copyright (c) Steve Scherf et al.
# Submitted via: CDex 2.12
#
DISCID=0d10c114
DTITLE=Nirvana - With The Lights Out: Disc 2
DYEAR=2004
DGENRE=Alt. Rock
TTITLE0=Opinion [solo acoustic, 1990]
TTITLE1=Lithium [solo acoustic, 1990]
TTITLE2=Been A Son [solo acoustic, 1990]
TTITLE3=Sliver [solo acoustic, 1989]
TTITLE4=Where Did You Sleep Last Night [solo acoustic, 1989]
TTITLE5=Pay To Play [demo, 1990]
TTITLE6=Here She Comes Now [demo, 1990]
TTITLE7=Drain You  [demo, 1989]
TTITLE8=Aneurysm [demo, 1990]
TTITLE9=Smells Like Teen Spirit [rehearsal demo, 1991]
TTITLE10=Breed [rough mix, 1991]
TTITLE11=Verse Chorus Verse [outtake, 1991]
TTITLE12=Old Age [outtake, 1991]
TTITLE13=Endless, Nameless [radio appearance, 1991]
TTITLE14=Dumb [radio appearance, 1991]
TTITLE15=D-7 [radio appearance, 1991]
TTITLE16=Oh The Guilt [b-side, 1992]
TTITLE17=Curmudgeon [b-side, 1992]
TTITLE18=Return Of The Rat [outtake, 1991]
TTITLE19=Smells Like Teen Spirit [Butch Vig mix - recorded May 1991]
EXTD=YEAR: 2004
EXTT0=
EXTT1=
EXTT2=
EXTT3=
EXTT4=
EXTT5=
EXTT6=
EXTT7=
EXTT8=
EXTT9=
EXTT10=
EXTT11=
EXTT12=
EXTT13=
EXTT14=
EXTT15=
EXTT16=
EXTT17=
EXTT18=
EXTT19=
PLAYORDER=
